<svg xmlns="http://www.w3.org/2000/svg" viewBox="0 0 256 256" width="256" height="256" fill="none" role="img" aria-label="AceitaTempo favicon">
  <defs>
    <linearGradient id="aceita-favicon-face" x1="56" y1="48" x2="196" y2="200" gradientUnits="userSpaceOnUse">
      <stop offset="0" stop-color="#ECFDF5" />
      <stop offset="1" stop-color="#D1FAE5" />
    </linearGradient>
    <linearGradient id="aceita-favicon-tag" x1="154" y1="132" x2="226" y2="214" gradientUnits="userSpaceOnUse">
      <stop offset="0" stop-color="#14B8A6" />
      <stop offset="1" stop-color="#10B981" />
    </linearGradient>
  </defs>

  <circle cx="108" cy="108" r="72" fill="url(#aceita-favicon-face)" stroke="#0F766E" stroke-width="12" />
  <circle cx="108" cy="108" r="8" fill="#0F172A" />
  <path d="M108 108V66" stroke="#0F172A" stroke-width="12" stroke-linecap="round" />
  <path d="M108 108L144 126" stroke="#0F172A" stroke-width="12" stroke-linecap="round" />

  <path
    d="M160 130h40c7.732 0 14 6.268 14 14v40c0 7.732-6.268 14-14 14h-40c-7.732 0-14-6.268-14-14v-40c0-7.732 6.268-14 14-14z"
    fill="url(#aceita-favicon-tag)"
  />
  <circle cx="172" cy="142" r="6" fill="#ECFDF5" />
  <path d="M166 166l12 12 20-24" stroke="#ECFDF5" stroke-width="10" stroke-linecap="round" stroke-linejoin="round" />
</svg>
